<?xml version="1.0" encoding="UTF-8"?>
<svg version="1.1" xmlns="http://www.w3.org/2000/svg" width="512" height="512">
<path d="M0 0 C29.90486862 -0.68432194 59.92311251 2.36291028 88.60742188 11.06640625 C89.29787598 11.27458984 89.98833008 11.48277344 90.69970703 11.69726562 C114.36653946 19.01748503 135.93140717 30.84336064 154.60742188 47.06640625 C155.99574219 48.25363281 155.99574219 48.25363281 157.41210938 49.46484375 C163.89321489 55.15600843 169.35723994 61.23552438 174.60742188 68.06640625 C175.34734375 69.00226563 176.08726562 69.938125 176.84960938 70.90234375 C213.16986948 117.77935766 222.2165833 184.23043637 215.01977539 241.76538086 C204.42900005 318.38088898 160.48205288 393.22413123 100.60742188 442.06640625 C100.10871582 442.47890625 99.61000977 442.89140625 99.09619141 443.31640625 C72.74726203 465.06616739 38.72897378 490.65654602 2.60693359 487.91455078 C-29.21882654 484.48716123 -59.14607303 462.54547026 -82.39257812 442.06640625 C-83.12734375 441.43089844 -83.86210937 440.79539062 -84.61914062 440.140625 C-86.555764 438.46247526 -88.47582049 436.76719119 -90.39257812 435.06640625 C-91.14667969 434.40511719 -91.90078125 433.74382812 -92.67773438 433.0625 C-102.17616405 424.6478848 -111.20613611 415.77016295 -119.39257812 406.06640625 C-120.17632812 405.17179687 -120.96007812 404.2771875 -121.76757812 403.35546875 C-174.75836584 342.50908962 -204.38415779 265.44446751 -198.87939453 184.5480957 C-195.27811311 140.15580505 -182.4340551 94.48772221 -151.41210938 61.23828125 C-149.64173674 59.3343602 -147.97872045 57.38749474 -146.33007812 55.37890625 C-114.59231071 18.29401498 -60.41966068 4.84208451 -14.09570312 0.6640625 C-9.3967608 0.31403925 -4.70832677 0.13068009 0 0 Z M-137.17773438 204.10546875 C-144.59909023 214.42607665 -145.77759415 225.53854026 -143.77148438 237.890625 C-141.65946905 248.10668001 -137.4831957 257.01918264 -132.39257812 266.06640625 C-131.84730469 267.05382812 -131.30203125 268.04125 -130.74023438 269.05859375 C-126.37037779 276.43072344 -120.75214195 282.4741858 -114.81347656 288.58984375 C-113.57935322 289.87231419 -112.37741017 291.18560202 -111.18164062 292.50390625 C-96.90892235 307.81563467 -75.59736734 319.65059547 -54.64257812 321.375 C-43.77856702 321.7364036 -34.63132175 319.73994653 -26.10742188 312.75 C-19.25671338 306.02413358 -16.3748704 296.71438425 -16.01757812 287.25390625 C-16.78641631 266.12757004 -26.94297527 247.77472103 -40.39257812 232.06640625 C-41.06804687 231.256875 -41.74351562 230.44734375 -42.43945312 229.61328125 C-51.89364378 218.6408994 -62.78520601 210.1368659 -75.39257812 203.06640625 C-76.24464844 202.58429688 -77.09671875 202.1021875 -77.97460938 201.60546875 C-95.7865406 192.10960881 -122.13700278 186.92546461 -137.17773438 204.10546875 Z M52.75585938 237.37890625 C41.37210174 252.76517228 31.69802345 272.4614562 33.60742188 292.06640625 C35.52343023 301.18660603 38.31468562 309.09685406 45.93554688 314.8125 C57.35213313 322.11421237 68.81826769 322.42361497 81.85742188 319.56640625 C100.89888181 314.99491923 116.72776341 303.45177488 130.60742188 290.06640625 C131.32671875 289.41027344 132.04601562 288.75414062 132.78710938 288.078125 C147.71403683 274.08038379 160.39266936 252.3119091 161.84570312 231.68359375 C162.06371584 220.69116342 160.45313659 211.49813385 153.28710938 202.78125 C146.39262466 195.74246212 137.36627134 193.63285046 127.79492188 192.69140625 C97.38724277 194.25881239 71.12495186 214.43691732 52.75585938 237.37890625 Z " fill="#435CDA" transform="translate(247.392578125,11.93359375)"/>
</svg>
