<?xml version="1.0" encoding="UTF-8"?>
<svg version="1.1" xmlns="http://www.w3.org/2000/svg" width="100" height="100">
<path d="M0 0 C11.23185252 7.62796315 18.16397221 18.61271749 21.25 31.8125 C22.89938755 47.22637564 19.87331377 60.42057414 10.25 72.8125 C2.15398245 81.79596563 -9.72085271 88.48481818 -21.94921875 89.1484375 C-37.09665517 89.45510648 -49.45957125 86.18515676 -61.00390625 75.78125 C-71.69794209 64.57990696 -75.40354761 51.4003089 -75.05859375 36.328125 C-74.44199153 24.05748503 -68.37664401 12.9149527 -59.5625 4.5 C-42.12456896 -10.01670499 -19.27100895 -11.33588762 0 0 Z " fill="#3A70C0" transform="translate(76.75,9.1875)"/>
<path d="M0 0 C11.23185252 7.62796315 18.16397221 18.61271749 21.25 31.8125 C22.89938755 47.22637564 19.87331377 60.42057414 10.25 72.8125 C2.15398245 81.79596563 -9.72085271 88.48481818 -21.94921875 89.1484375 C-37.09665517 89.45510648 -49.45957125 86.18515676 -61.00390625 75.78125 C-71.69794209 64.57990696 -75.40354761 51.4003089 -75.05859375 36.328125 C-74.44199153 24.05748503 -68.37664401 12.9149527 -59.5625 4.5 C-42.12456896 -10.01670499 -19.27100895 -11.33588762 0 0 Z M-55.5625 16.6875 C-63.10397427 25.82125771 -64.29416934 34.18960094 -63.75 45.8125 C-62.44594996 55.73318448 -57.20524582 64.2846434 -49.75 70.8125 C-39.72103064 77.03020085 -30.14042217 79.46666874 -18.4609375 77.1640625 C-7.87482217 74.26341732 -0.72702321 69.40111398 5.03515625 60.015625 C10.31602223 50.43874908 11.96186142 40.38413631 9.125 29.6875 C5.5864746 19.38174861 -1.27391444 11.98352071 -10.7734375 6.68359375 C-26.67876148 -0.50505704 -44.06108285 4.20515175 -55.5625 16.6875 Z " fill="#F6F7F8" transform="translate(76.75,9.1875)"/>
<path d="M0 0 C4.67715612 3.96485528 8.03450391 8.544245 11.125 13.8125 C11.56070313 14.53695313 11.99640625 15.26140625 12.4453125 16.0078125 C16.9742922 25.09744308 16.49307939 36.92249448 14.2421875 46.61328125 C9.79977618 59.13146678 2.22149982 66.84542901 -9.29296875 73.1328125 C-18.87137322 77.37998099 -32.45953612 77.86620225 -42.375 74.3125 C-44.61328125 73.1953125 -44.61328125 73.1953125 -46.875 71.8125 C-47.79667969 71.25304687 -48.71835937 70.69359375 -49.66796875 70.1171875 C-59.47272862 63.58068092 -66.52747174 54.52252334 -68.875 42.8125 C-70.25415466 30.42825409 -69.51510216 19.329062 -61.8203125 9.07421875 C-45.68243393 -9.77191971 -21.00497848 -14.92272882 0 0 Z M-55.6875 9.6875 C-63.22897427 18.82125771 -64.41916934 27.18960094 -63.875 38.8125 C-62.57094996 48.73318448 -57.33024582 57.2846434 -49.875 63.8125 C-39.84603064 70.03020085 -30.26542217 72.46666874 -18.5859375 70.1640625 C-7.99982217 67.26341732 -0.85202321 62.40111398 4.91015625 53.015625 C10.19102223 43.43874908 11.83686142 33.38413631 9 22.6875 C5.4614746 12.38174861 -1.39891444 4.98352071 -10.8984375 -0.31640625 C-26.80376148 -7.50505704 -44.18608285 -2.79484825 -55.6875 9.6875 Z " fill="#DAE4F1" transform="translate(76.875,16.1875)"/>
<path d="M0 0 C4.057041 0.53039297 5.94844566 2.57643552 8.75 5.4375 C9.54921875 6.24058594 10.3484375 7.04367188 11.171875 7.87109375 C13 10 13 10 13 12 C13.66 12 14.32 12 15 12 C15 8.7 15 5.4 15 2 C16.32 2 17.64 2 19 2 C19.0809723 4.43816585 19.14046972 6.87364384 19.1875 9.3125 C19.21263672 10.00279297 19.23777344 10.69308594 19.26367188 11.40429688 C19.30429283 14.20714246 19.28512613 16.4556683 17.96875 18.96875 C14.86370554 20.59520186 11.72296775 20.3116907 8.3125 20.1875 C7.61060547 20.17396484 6.90871094 20.16042969 6.18554688 20.14648438 C4.45670171 20.11120182 2.72825235 20.05739583 1 20 C1 18.68 1 17.36 1 16 C4.3 16 7.6 16 11 16 C11 15.34 11 14.68 11 14 C10.42894531 13.74992187 9.85789062 13.49984375 9.26953125 13.2421875 C6.67473255 11.82197066 4.8104519 10.18197351 2.6875 8.125 C1.96949219 7.44695313 1.25148437 6.76890625 0.51171875 6.0703125 C-1 4 -1 4 -0.73046875 1.7421875 C-0.48941406 1.16726562 -0.24835937 0.59234375 0 0 Z " fill="#EAF0F7" transform="translate(55,54)"/>
<path d="M0 0 C0.70189453 0.01353516 1.40378906 0.02707031 2.12695312 0.04101562 C3.85579829 0.07629818 5.58424765 0.13010417 7.3125 0.1875 C7.3125 1.5075 7.3125 2.8275 7.3125 4.1875 C4.0125 4.1875 0.7125 4.1875 -2.6875 4.1875 C-2.6875 4.8475 -2.6875 5.5075 -2.6875 6.1875 C-1.83091797 6.56261719 -1.83091797 6.56261719 -0.95703125 6.9453125 C1.63776745 8.36552934 3.5020481 10.00552649 5.625 12.0625 C6.34300781 12.74054687 7.06101562 13.41859375 7.80078125 14.1171875 C9.3125 16.1875 9.3125 16.1875 9.04296875 18.4453125 C8.80191406 19.02023438 8.56085937 19.59515625 8.3125 20.1875 C4.255459 19.65710703 2.36405434 17.61106448 -0.4375 14.75 C-1.23671875 13.94691406 -2.0359375 13.14382812 -2.859375 12.31640625 C-4.6875 10.1875 -4.6875 10.1875 -4.6875 8.1875 C-5.3475 8.1875 -6.0075 8.1875 -6.6875 8.1875 C-6.6875 11.4875 -6.6875 14.7875 -6.6875 18.1875 C-8.0075 18.1875 -9.3275 18.1875 -10.6875 18.1875 C-10.7684723 15.74933415 -10.82796972 13.31385616 -10.875 10.875 C-10.90013672 10.18470703 -10.92527344 9.49441406 -10.95117188 8.78320312 C-10.99179283 5.98035754 -10.97262613 3.7318317 -9.65625 1.21875 C-6.55120554 -0.40770186 -3.41046775 -0.1241907 0 0 Z " fill="#EAF0F7" transform="translate(36.6875,25.8125)"/>
<path d="M0 0 C2.49799432 0.03833994 4.9478662 0.14468535 7.4375 0.3125 C8.13166016 0.34794922 8.82582031 0.38339844 9.54101562 0.41992188 C14.75831392 0.75831392 14.75831392 0.75831392 17 3 C17.30599063 5.56916657 17.51087087 8.04758384 17.625 10.625 C17.66367187 11.33140625 17.70234375 12.0378125 17.7421875 12.765625 C17.83647724 14.50998524 17.91932891 16.25495691 18 18 C16.68 18 15.36 18 14 18 C13 17 13 17 12.90234375 15.15234375 C12.95117188 12.07617188 12.95117188 12.07617188 13 9 C7.68496289 13.55002735 7.68496289 13.55002735 2.6875 18.4375 C1 20 1 20 -2 20 C-1.54261927 15.31808451 0.19110394 13.36895826 3.5625 10.1875 C4.38878906 9.39730469 5.21507812 8.60710938 6.06640625 7.79296875 C6.70449219 7.20128906 7.34257813 6.60960937 8 6 C6.88625 5.9175 5.7725 5.835 4.625 5.75 C1 5 1 5 -0.4375 2.9375 C-0.7159375 1.9784375 -0.7159375 1.9784375 -1 1 C-0.67 0.67 -0.34 0.34 0 0 Z " fill="#EBF0F7" transform="translate(28,54)"/>
<path d="M0 0 C-0.47409648 4.31730413 -3.03396703 6.33647461 -6.0625 9.25 C-6.98160156 10.14203125 -7.90070313 11.0340625 -8.84765625 11.953125 C-9.55792969 12.62859375 -10.26820312 13.3040625 -11 14 C-6.545 14.99 -6.545 14.99 -2 16 C-2 17.32 -2 18.64 -2 20 C-4.45933991 19.88630789 -6.9167909 19.75957349 -9.375 19.625 C-10.07367188 19.5940625 -10.77234375 19.563125 -11.4921875 19.53125 C-16.7734375 19.2265625 -16.7734375 19.2265625 -19 17 C-19.30599063 14.43083343 -19.51087087 11.95241616 -19.625 9.375 C-19.66367187 8.66859375 -19.70234375 7.9621875 -19.7421875 7.234375 C-19.83647724 5.49001476 -19.91932891 3.74504309 -20 2 C-18.68 2 -17.36 2 -16 2 C-14.03177114 3.96822886 -14.33751619 7.34808709 -14 10 C-13.32453125 9.278125 -12.6490625 8.55625 -11.953125 7.8125 C-11.06109375 6.884375 -10.1690625 5.95625 -9.25 5 C-8.36828125 4.071875 -7.4865625 3.14375 -6.578125 2.1875 C-4 0 -4 0 0 0 Z " fill="#EDF2F8" transform="translate(74,26)"/>
<path d="M0 0 C0.66 0.33 1.32 0.66 2 1 C-2.29 5.29 -6.58 9.58 -11 14 C-11 10.30159372 -10.17133056 9.68584567 -7.75 7 C-7.14671875 6.319375 -6.5434375 5.63875 -5.921875 4.9375 C-4.06233388 3.06284066 -2.15205789 1.52358081 0 0 Z " fill="#EDEDED" transform="translate(22,10)"/>
</svg>
